<?xml version="1.0" encoding="UTF-8" standalone="no"?>
<!-- Created with Inkscape (http://www.inkscape.org/) -->

<svg
   xmlns:dc="http://purl.org/dc/elements/1.1/"
   xmlns:cc="http://creativecommons.org/ns#"
   xmlns:rdf="http://www.w3.org/1999/02/22-rdf-syntax-ns#"
   xmlns:svg="http://www.w3.org/2000/svg"
   xmlns="http://www.w3.org/2000/svg"
   xmlns:sodipodi="http://sodipodi.sourceforge.net/DTD/sodipodi-0.dtd"
   xmlns:inkscape="http://www.inkscape.org/namespaces/inkscape"
   version="1.1"
   id="svg40"
   xml:space="preserve"
   width="755.90497"
   height="1058.2682"
   viewBox="0 0 755.90497 1058.2682"
   sodipodi:docname="pinkbook2-1.svg"
   inkscape:version="0.92.1 r15371"><metadata
     id="metadata46"><rdf:RDF><cc:Work
         rdf:about=""><dc:format>image/svg+xml</dc:format><dc:type
           rdf:resource="http://purl.org/dc/dcmitype/StillImage" /><dc:title></dc:title></cc:Work></rdf:RDF></metadata><defs
     id="defs44" /><sodipodi:namedview
     pagecolor="#ffffff"
     bordercolor="#666666"
     borderopacity="1"
     objecttolerance="10"
     gridtolerance="10"
     guidetolerance="10"
     inkscape:pageopacity="0"
     inkscape:pageshadow="2"
     inkscape:window-width="1600"
     inkscape:window-height="839"
     id="namedview42"
     showgrid="false"
     inkscape:zoom="0.61043128"
     inkscape:cx="377.95248"
     inkscape:cy="529.13409"
     inkscape:window-x="-9"
     inkscape:window-y="-9"
     inkscape:window-maximized="1"
     inkscape:current-layer="g48" /><g
     id="g48"
     inkscape:groupmode="layer"
     inkscape:label="pinkbook2"
     transform="matrix(1.3333333,0,0,-1.3333333,0,1058.2682)"><path
       d="m 308.79604,267.08972 c 0,0 53.40989,44.99504 124.72818,33.94127 71.31823,-11.07034 85.42574,-40.44735 76.28076,-31.66745 l 0.76312,-24.01623 c 0,0 -75.78284,46.63814 -134.76948,34.43928 -58.98645,-12.19892 -67.0029,-12.69687 -67.0029,-12.69687 z"
       style="fill:#6a7177;fill-opacity:1;fill-rule:nonzero;stroke:#231f20;stroke-width:1.69938517;stroke-linecap:round;stroke-linejoin:round;stroke-miterlimit:4;stroke-dasharray:none;stroke-opacity:1"
       id="path52"
       inkscape:connector-curvature="0" /><path
       d="m 265.94212,265.06485 c 0,0 -86.93634,82.88645 -208.494286,14.2073 l -3.560245,5.60988 -0.256586,249.19063 -25.933179,-9.91692 1.526229,-291.38906 c 0,0 70.679193,72.97789 236.717957,32.29817 z"
       style="fill:#6a7177;fill-opacity:1;fill-rule:nonzero;stroke:#231f20;stroke-width:1.69938517;stroke-linecap:round;stroke-linejoin:round;stroke-miterlimit:4;stroke-dasharray:none;stroke-opacity:1"
       id="path54"
       inkscape:connector-curvature="0" /><path
       d="m 52.875186,543.22593 c 0,0 129.674144,97.64149 233.415034,-6.09951 V 254.87415 c 0,0 -106.77814,102.2223 -231.888033,21.36067 L 52.87433,543.22593 Z"
       style="fill:none;stroke:#231f20;stroke-width:6.79804993;stroke-linecap:round;stroke-linejoin:round;stroke-miterlimit:4;stroke-dasharray:none;stroke-opacity:1"
       id="path56"
       inkscape:connector-curvature="0" /><path
       d="m 286.29022,254.87415 c 0,0 105.29272,99.16838 234.95021,9.16165 v 277.66328 c 0,0 -111.36724,91.5419 -234.95021,-4.57266"
       style="fill:none;stroke:#231f20;stroke-width:6.79804993;stroke-linecap:round;stroke-linejoin:round;stroke-miterlimit:4;stroke-dasharray:none;stroke-opacity:1"
       id="path58"
       inkscape:connector-curvature="0" /><path
       d="M 52.178156,534.35481 C 41.01651,531.78215 29.041621,528.11416 27.448301,523.89012 V 229.96171 c 0,0 54.928415,47.81666 131.209389,48.82912 76.28081,0.99592 126.10563,-24.41463 126.10563,-24.41463 0,0 72.23107,29.46007 115.94807,28.44767 43.75028,-0.99598 103.76586,-30.50568 110.8861,-41.69214 l -1.0299,30.52232"
       style="fill:none;stroke:#231f20;stroke-width:6.79804993;stroke-linecap:round;stroke-linejoin:round;stroke-miterlimit:4;stroke-dasharray:none;stroke-opacity:1"
       id="path60"
       inkscape:connector-curvature="0" /></g></svg>